# xmcd
#
# Track frame offsets:
#	150
#	20722
#	46227
#	59713
#	85554
#	101112
#	124961
#	146653
#	160529
#	180586
#	202778
#	215726
#	230509
#	254413
#	285105
#	301324
#	328605
#
# Disc length: 4694 seconds
#
# Revision: 0
# Processed by: cddbd v1.5.1PL0 Copyright (c) Steve Scherf et al.
# Submitted via: dBpowerAMP V4.0
#
DISCID=ee125411
DTITLE=Les Wilson - Les Wilson - Best of
DYEAR=2001
DGENRE=Blues
TTITLE0=Down, but not out
TTITLE1=I'll play the Blues for you
TTITLE2=Boogie for Elmore
TTITLE3=Nobody's business
TTITLE4=I believe I'm in love with you
TTITLE5=Damn right I got the Blues
TTITLE6=Blue light
TTITLE7=Can't stop lovin
TTITLE8=Sittin' on top of the world
TTITLE9=Chicken Banana
TTITLE10=Ain't got nobody
TTITLE11=Houserockin Blues
TTITLE12=Tell the truth
TTITLE13=Lonely nights
TTITLE14=Fine lookin woman
TTITLE15=Big city Blues
TTITLE16=Madison Blues
EXTD=
EXTT0=
EXTT1=
EXTT2=
EXTT3=
EXTT4=
EXTT5=
EXTT6=
EXTT7=
EXTT8=
EXTT9=
EXTT10=
EXTT11=
EXTT12=
EXTT13=
EXTT14=
EXTT15=
EXTT16=
PLAYORDER=
